<?xml version="1.0" encoding="utf-8"?>
<svg version="1.1" id="Layer_1"
xmlns="http://www.w3.org/2000/svg"
xmlns:xlink="http://www.w3.org/1999/xlink"
width="136px" height="217px"
xml:space="preserve">
<g id="PathID_70" transform="matrix(1, 0, 0, 1, 0, 0)">
<path style="fill:#0B055B;fill-opacity:1" d="M136 0L136 207Q136 211.15 133 214.05Q130.1 217 126 217L10 217Q5.85 217 2.9 214.05Q0 211.15 0 207L0 0L136 0" />
</g>
<g id="PathID_71" transform="matrix(1, 0, 0, 1, 0, 0)">
<path style="fill:#1D2298;fill-opacity:1" d="M128 5L128 204Q128 206.05 126.5 207.55Q125.05 209 123 209L13 209Q10.95 209 9.45 207.55Q8 206.05 8 204L8 5Q8 2.95 9.45 1.5Q10.95 0 13 0L123 0Q125.05 0 126.5 1.5Q128 2.95 128 5" />
</g>
<g id="PathID_72" transform="matrix(1, 0, 0, 1, 0, 0)">
<path style="fill:#656ADF;fill-opacity:1" d="M123 28L121 28L121 27L123 27L123 28M101 27L103 27L103 28L101 28L101 27M99 27L99 28L97 28L97 27L99 27M95 27L95 28L93 28L93 27L95 27M87 28L85 28L85 27L87 27L87 28M89 27L91 27L91 28L89 28L89 27M81 28L81 27L83 27L83 28L81 28M87 49L87 50L85 50L85 49L87 49M83 49L83 50L81 50L81 49L83 49M91 49L91 50L89 50L89 49L91 49M95 49L95 50L93 50L93 49L95 49M99 49L99 50L97 50L97 49L99 49M119 28L117 28L117 27L119 27L119 28M113 28L113 27L115 27L115 28L113 28M107 28L105 28L105 27L107 27L107 28M109 27L111 27L111 28L109 28L109 27M107 49L107 50L105 50L105 49L107 49M111 49L111 50L109 50L109 49L111 49M115 49L115 50L113 50L113 49L115 49M119 49L119 50L117 50L117 49L119 49M103 49L103 50L101 50L101 49L103 49M103 72L101 72L101 71L103 71L103 72M105 71L107 71L107 72L105 72L105 71M111 72L109 72L109 71L111 71L111 72M115 72L113 72L113 71L115 71L115 72M121 71L123 71L123 72L121 72L121 71M117 71L119 71L119 72L117 72L117 71M83 71L83 72L81 72L81 71L83 71M85 71L87 71L87 72L85 72L85 71M89 71L91 71L91 72L89 72L89 71M95 71L95 72L93 72L93 71L95 71M99 71L99 72L97 72L97 71L99 71M85 93L87 93L87 94L85 94L85 93M81 94L81 93L83 93L83 94L81 94M89 94L89 93L91 93L91 94L89 94M93 94L93 93L95 93L95 94L93 94M99 93L99 94L97 94L97 93L99 93M101 93L103 93L103 94L101 94L101 93M105 93L107 93L107 94L105 94L105 93M111 93L111 94L109 94L109 93L111 93M113 94L113 93L115 93L115 94L113 94M117 94L117 93L119 93L119 94L117 94M121 93L123 93L123 94L121 94L121 93M121 50L121 49L123 49L123 50L121 50M57 27L59 27L59 28L57 28L57 27M53 27L55 27L55 28L53 28L53 27M51 28L49 28L49 27L51 27L51 28M47 28L45 28L45 27L47 27L47 28M41 28L41 27L43 27L43 28L41 28M47 49L47 50L45 50L45 49L47 49M43 49L43 50L41 50L41 49L43 49M55 49L55 50L53 50L53 49L55 49M59 49L59 50L57 50L57 49L59 49M51 49L51 50L49 50L49 49L51 49M79 28L77 28L77 27L79 27L79 28M75 28L73 28L73 27L75 27L75 28M71 28L69 28L69 27L71 27L71 28M67 28L65 28L65 27L67 27L67 28M61 28L61 27L63 27L63 28L61 28M67 49L67 50L65 50L65 49L67 49M63 49L63 50L61 50L61 49L63 49M75 49L75 50L73 50L73 49L75 49M79 49L79 50L77 50L77 49L79 49M71 49L71 50L69 50L69 49L71 49M15 27L15 28L13 28L13 27L15 27M19 27L19 28L17 28L17 27L19 27M15 49L15 50L13 50L13 49L15 49M19 49L19 50L17 50L17 49L19 49M37 27L39 27L39 28L37 28L37 27M35 27L35 28L33 28L33 27L35 27M31 28L29 28L29 27L31 27L31 28M27 28L25 28L25 27L27 27L27 28M21 27L23 27L23 28L21 28L21 27M23 49L23 50L21 50L21 49L23 49M27 49L27 50L25 50L25 49L27 49M39 49L39 50L37 50L37 49L39 49M35 49L35 50L33 50L33 49L35 49M31 49L31 50L29 50L29 49L31 49M21 71L23 71L23 72L21 72L21 71M25 71L27 71L27 72L25 72L25 71M29 71L31 71L31 72L29 72L29 71M33 72L33 71L35 71L35 72L33 72M39 71L39 72L37 72L37 71L39 71M13 72L13 71L15 71L15 72L13 72M19 71L19 72L17 72L17 71L19 71M13 93L15 93L15 94L13 94L13 93M17 93L19 93L19 94L17 94L17 93M25 93L27 93L27 94L25 94L25 93M23 93L23 94L21 94L21 93L23 93M29 93L31 93L31 94L29 94L29 93M33 94L33 93L35 93L35 94L33 94M37 94L37 93L39 93L39 94L37 94M61 72L61 71L63 71L63 72L61 72M65 71L67 71L67 72L65 72L65 71M69 71L71 71L71 72L69 72L69 71M75 71L75 72L73 72L73 71L75 71M79 71L79 72L77 72L77 71L79 71M41 71L43 71L43 72L41 72L41 71M45 71L47 71L47 72L45 72L45 71M49 71L51 71L51 72L49 72L49 71M53 71L55 71L55 72L53 72L53 71M57 71L59 71L59 72L57 72L57 71M45 93L47 93L47 94L45 94L45 93M43 93L43 94L41 94L41 93L43 93M49 93L51 93L51 94L49 94L49 93M53 94L53 93L55 93L55 94L53 94M57 94L57 93L59 93L59 94L57 94M65 93L67 93L67 94L65 94L65 93M63 93L63 94L61 94L61 93L63 93M69 93L71 93L71 94L69 94L69 93M73 94L73 93L75 93L75 94L73 94M77 94L77 93L79 93L79 94L77 94M67 116L65 116L65 115L67 115L67 116M69 115L71 115L71 116L69 116L69 115M61 115L63 115L63 116L61 116L61 115M79 115L79 116L77 116L77 115L79 115M75 115L75 116L73 116L73 115L75 115M47 116L45 116L45 115L47 115L47 116M49 115L51 115L51 116L49 116L49 115M41 116L41 115L43 115L43 116L41 116M57 115L59 115L59 116L57 116L57 115M53 115L55 115L55 116L53 116L53 115M47 138L45 138L45 137L47 137L47 138M49 137L51 137L51 138L49 138L49 137M41 137L43 137L43 138L41 138L41 137M59 137L59 138L57 138L57 137L59 137M55 137L55 138L53 138L53 137L55 137M67 138L65 138L65 137L67 137L67 138M69 137L71 137L71 138L69 138L69 137M61 137L63 137L63 138L61 138L61 137M77 138L77 137L79 137L79 138L77 138M73 138L73 137L75 137L75 138L73 138M27 116L25 116L25 115L27 115L27 116M29 115L31 115L31 116L29 116L29 115M23 115L23 116L21 116L21 115L23 115M39 115L39 116L37 116L37 115L39 115M33 116L33 115L35 115L35 116L33 116M19 115L19 116L17 116L17 115L19 115M15 115L15 116L13 116L13 115L15 115M13 137L15 137L15 138L13 138L13 137M17 137L19 137L19 138L17 138L17 137M27 138L25 138L25 137L27 137L27 138M29 137L31 137L31 138L29 138L29 137M21 137L23 137L23 138L21 138L21 137M37 138L37 137L39 137L39 138L37 138M33 138L33 137L35 137L35 138L33 138M35 159L35 160L33 160L33 159L35 159M31 160L29 160L29 159L31 159L31 160M39 160L37 160L37 159L39 159L39 160M25 159L27 159L27 160L25 160L25 159M23 159L23 160L21 160L21 159L23 159M15 160L13 160L13 159L15 159L15 160M17 160L17 159L19 159L19 160L17 160M15 182L13 182L13 181L15 181L15 182M19 182L17 182L17 181L19 181L19 182M35 181L35 182L33 182L33 181L35 181M31 182L29 182L29 181L31 181L31 182M37 181L39 181L39 182L37 182L37 181M23 182L21 182L21 181L23 181L23 182M25 181L27 181L27 182L25 182L25 181M73 160L73 159L75 159L75 160L73 160M71 160L69 160L69 159L71 159L71 160M79 160L77 160L77 159L79 159L79 160M65 159L67 159L67 160L65 160L65 159M61 160L61 159L63 159L63 160L61 160M55 160L53 160L53 159L55 159L55 160M51 160L49 160L49 159L51 159L51 160M57 159L59 159L59 160L57 160L57 159M45 159L47 159L47 160L45 160L45 159M41 160L41 159L43 159L43 160L41 160M55 181L55 182L53 182L53 181L55 181M51 182L49 182L49 181L51 181L51 182M57 182L57 181L59 181L59 182L57 182M41 181L43 181L43 182L41 182L41 181M45 181L47 181L47 182L45 182L45 181M75 181L75 182L73 182L73 181L75 181M71 182L69 182L69 181L71 181L71 182M77 181L79 181L79 182L77 182L77 181M61 181L63 181L63 182L61 182L61 181M65 181L67 181L67 182L65 182L65 181M123 116L121 116L121 115L123 115L123 116M123 138L121 138L121 137L123 137L123 138M111 115L111 116L109 116L109 115L111 115M107 116L105 116L105 115L107 115L107 116M103 116L101 116L101 115L103 115L103 116M117 115L119 115L119 116L117 116L117 115M115 116L113 116L113 115L115 115L115 116M87 116L85 116L85 115L87 115L87 116M91 115L91 116L89 116L89 115L91 115M83 116L81 116L81 115L83 115L83 116M99 115L99 116L97 116L97 115L99 115M95 115L95 116L93 116L93 115L95 115M87 138L85 138L85 137L87 137L87 138M89 138L89 137L91 137L91 138L89 138M81 138L81 137L83 137L83 138L81 138M99 137L99 138L97 138L97 137L99 137M101 137L103 137L103 138L101 138L101 137M95 137L95 138L93 138L93 137L95 137M111 137L111 138L109 138L109 137L111 137M107 138L105 138L105 137L107 137L107 138M117 138L117 137L119 137L119 138L117 138M113 138L113 137L115 137L115 138L113 138M113 160L113 159L115 159L115 160L113 160M121 159L123 159L123 160L121 160L121 159M119 159L119 160L117 160L117 159L119 159M105 159L107 159L107 160L105 160L105 159M103 160L101 160L101 159L103 159L103 160M111 160L109 160L109 159L111 159L111 160M95 160L93 160L93 159L95 159L95 160M99 160L97 160L97 159L99 159L99 160M81 160L81 159L83 159L83 160L81 160M85 159L87 159L87 160L85 160L85 159M91 160L89 160L89 159L91 159L91 160M93 181L95 181L95 182L93 182L93 181M99 182L97 182L97 181L99 181L99 182M101 181L103 181L103 182L101 182L101 181M85 181L87 181L87 182L85 182L85 181M81 181L83 181L83 182L81 182L81 181M91 182L89 182L89 181L91 181L91 182M113 181L115 181L115 182L113 182L113 181M119 181L119 182L117 182L117 181L119 181M121 181L123 181L123 182L121 182L121 181M105 181L107 181L107 182L105 182L105 181M109 181L111 181L111 182L109 182L109 181" />
</g>
</svg>
