<?xml version="1.0" encoding="utf-8"?>
<svg version="1.1" id="Layer_1"
xmlns="http://www.w3.org/2000/svg"
xmlns:xlink="http://www.w3.org/1999/xlink"
width="94px" height="5px"
xml:space="preserve">
<g id="PathID_7" transform="matrix(1, 0, 0, 1, -846, -60)">
<path style="fill:#B8E0FF;fill-opacity:1" d="M924 60L927.1 60L927.1 61.15L924.15 61.15L924.15 61.95L926.1 61.95L926.1 62.95L927.1 62.95L927.1 64L926.1 64L926.1 65L923 65L923 63.85L925.95 63.85L925.95 63.05L924 63.05L924 62.1L923 62.1L923 60.95L924 60.95L924 60M922.1 61.15L919.15 61.15L919.15 61.95L921.1 61.95L921.1 63.05L919.15 63.05L919.15 63.85L922.1 63.85L922.1 65L918 65L918 60L922.1 60L922.1 61.15M931 60L934.1 60L934.1 61.15L931.15 61.15L931.15 63.85L932.95 63.85L932.95 63.05L931.95 63.05L931.95 61.95L934.1 61.95L934.1 65L931 65L931 64L930 64L930 60.95L931 60.95L931 60M929.1 60L929.1 65L928 65L928 60L929.1 60M914.15 61.15L914.15 63.85L915.9 63.85L915.9 61.15L914.15 61.15M916.1 60L916.1 60.95L917.1 60.95L917.1 64L916.1 64L916.1 65L913 65L913 60L916.1 60M905 60.95L905 60L907.05 60L907.05 60.95L908.05 60.95L908.05 62.1L907.05 62.1L907.05 63.05L905.15 63.05L905.15 63.85L907.9 63.85L907.9 62.95L909 62.95L909 64L908.05 64L908.05 65L905 65L905 64L904 64L904 62.95L905 62.95L905 62.1L904 62.1L904 60.95L905 60.95M905.15 61.15L905.15 61.9L906.9 61.9L906.9 61.15L905.15 61.15M895.1 60L895.1 61.15L894.15 61.15L894.15 65L893 65L893 61.15L892 61.15L892 60L895.1 60M891.1 61.15L888.15 61.15L888.15 63.85L891.1 63.85L891.1 65L888 65L888 64L887 64L887 60.95L888 60.95L888 60L891.1 60L891.1 61.15M900.1 61.15L897.15 61.15L897.15 61.95L899.1 61.95L899.1 62.95L900.1 62.95L900.1 64L899.1 64L899.1 65L896 65L896 63.85L898.95 63.85L898.95 63.05L897 63.05L897 62.1L896 62.1L896 60.95L897 60.95L897 60L900.1 60L900.1 61.15M939.1 60.95L939.1 65L937.95 65L937.95 61.15L936.15 61.15L936.15 65L935 65L935 60L938.1 60L938.1 60.95L939.1 60.95M848 61L848 60L849 60L849 65L848 65L848 64L847 64L847 63L846 63L846 62L847 62L847 61L848 61M886.1 61.15L883.15 61.15L883.15 61.95L885.1 61.95L885.1 63.05L883.15 63.05L883.15 63.85L886.1 63.85L886.1 65L882 65L882 60L886.1 60L886.1 61.15M881.1 61.15L880.15 61.15L880.15 65L879 65L879 61.15L878 61.15L878 60L881.1 60L881.1 61.15M875.1 60L875.1 65L873.95 65L873.95 63.05L872.15 63.05L872.15 65L871 65L871 60L872.15 60L872.15 61.95L873.95 61.95L873.95 60L875.1 60M877.1 60L877.1 65L876 65L876 60L877.1 60M864.15 60L864.15 60.95L865.15 60.95L865.15 62.1L864.15 62.1L864.15 62.95L865.15 62.95L865.15 65L864 65L864 63.05L862.2 63.05L862.2 65L861.05 65L861.05 60L864.15 60M862.2 61.15L862.2 61.95L863.95 61.95L863.95 61.15L862.2 61.15M870.1 61.15L867.15 61.15L867.15 63.85L870.1 63.85L870.1 65L867 65L867 64L866 64L866 60.95L867 60.95L867 60L870.1 60L870.1 61.15M857.15 61.15L857.15 61.95L858.95 61.95L858.95 61.15L857.15 61.15M857 60.95L857 60L859.1 60L859.1 60.95L860.1 60.95L860.1 65L858.95 65L858.95 63.05L857.15 63.05L857.15 65L856 65L856 60.95L857 60.95" />
</g>
</svg>
