<?xml version="1.0" encoding="utf-8"?>
<svg version="1.1" id="Layer_1"
xmlns="http://www.w3.org/2000/svg"
xmlns:xlink="http://www.w3.org/1999/xlink"
width="46px" height="64px"
xml:space="preserve">
<g id="PathID_92" transform="matrix(1, 0, 0, 1, 23, 31.5)">
<path style="fill:#FFFFFF;fill-opacity:1" d="M-23 -17.15Q-23.1 -17.55 -21.05 -17.9L-17.95 -17.9L-13.85 -17.25L-10.75 -17.05Q-8.5 -17.05 -7.4 -17.9Q-6 -18.9 -4 -18.95L-0.25 -18.8Q1.8 -18.55 1.6 -17.35Q1.4 -16.2 -0.75 -15.9L-8.35 -15.65L-14.35 -15.65L-14.35 5.25Q-14.35 6.7 -13.6 7.35Q-12.9 7.95 -11.8 7.95Q-8.05 7.95 -2.75 6.7Q2.55 5.4 7.15 3.55L6.95 -21.8Q6.95 -24.35 6 -25.35Q5.05 -26.4 2.6 -27.45Q1.45 -28 1.75 -28.4L4 -28.65L6.45 -28.1L9.6 -27.1Q11.15 -26.5 10.65 -25.25Q10.15 -24.05 10.15 -21.75L10.35 -2.2L19.35 -2.4L19.25 -24.6Q19.2 -27.05 18.3 -28.05Q17.3 -29.05 14.9 -30.15Q13.7 -30.75 14.05 -31.15L16.25 -31.45L18.75 -30.85L21.85 -29.8Q23.4 -29.2 22.9 -27.95Q22.4 -26.75 22.45 -24.5L22.7 16.2Q22.7 22.65 22.2 27.1Q21.7 31.5 20.45 31.55Q19.5 31.55 19.5 27.65L19.5 20.2L19.3 -0.35L10.3 -0.2L10.4 13.8Q10.4 20.25 9.9 24.7Q9.4 29.1 8.2 29.2Q7.2 29.2 7.25 25.25L7.2 17.8L7.1 4.55Q2.4 7.05 -3.4 9.05Q-9.25 11 -13.2 11.05Q-15.5 11 -16.5 10.15Q-17.55 9.3 -17.55 6.55L-17.55 -12.45Q-17.55 -14.75 -18.6 -15.4Q-19.7 -16.1 -22.05 -16.6Q-22.9 -16.8 -23 -17.15" />
</g>
</svg>
