<?xml version="1.0" encoding="utf-8"?>
<svg version="1.1" id="Layer_1"
xmlns="http://www.w3.org/2000/svg"
xmlns:xlink="http://www.w3.org/1999/xlink"
width="53px" height="63px"
xml:space="preserve">
<g id="PathID_94" transform="matrix(1, 0, 0, 1, 26.45, 31.25)">
<path style="fill:#FFFFFF;fill-opacity:1" d="M10.8 -18.6L7 -15.9L2.25 -12.95L7.05 -11.75L10.9 -10.9L12.75 -11.15L15 -11.05Q16.45 -10.75 17.95 -9.85L20.1 -8.1Q20.7 -7.05 19.85 -6.5Q19 -5.95 16.5 -6.75L9.6 -9.15L0.6 -12Q-3.6 -9.75 -8.4 -7.85Q-13.15 -5.95 -17.75 -5.1L-20.7 -4.9Q-21.15 -5.2 -20.25 -5.45Q-13.85 -7.15 -6.15 -11.05Q1.55 -15 7.85 -21.05L0.3 -20.7L-5.7 -20.35L-7.65 -20.05L-8.55 -19.85L-10.95 -19.25Q-12.3 -19.05 -15.55 -21Q-16.8 -21.7 -16.3 -22L-14.35 -22.2L-12.25 -21.95L-8.85 -21.8L0.4 -22.1Q6.3 -22.35 7.5 -23.05Q8.25 -23.6 9.85 -23.45L12 -23.2Q13.6 -22.7 13.25 -21.45Q12.9 -20.15 10.8 -18.6M24.5 2.55L20.25 2.55L13 2.3L2.2 2.5L1.55 2.5L1.55 12.45L7 12.15L9.95 11.8L12.25 11.15L14.35 11.2Q16.3 11.65 15.7 12.65Q15.1 13.6 15.05 14.95L15.1 21.45Q15.05 25.15 14.5 28.2Q13.95 31.25 13 31.35Q12.2 31.3 12.15 28.75L12.05 24L11.85 13.5L-4.55 14.05Q-7.25 14.1 -9.4 15.15Q-11.55 16.2 -16.65 13.05L-17.55 12.15L-14.55 12L-9.1 12.45L-1.5 12.5L-1.5 2.5L-9.3 2.9L-12.05 3.25Q-14.35 3.45 -16.45 4.3Q-18.6 5.1 -25.1 2.15Q-27.05 1.3 -26.15 1L-23.35 0.5L-18.9 0.8L-12.8 1.1L-6.95 1.15L1.65 1.1L9.55 0.8L13.85 0.25Q16.9 -1.15 21.75 -1.15Q26.6 -1.2 26.5 1.1Q26.5 2.5 24.5 2.55M4.3 -27.75L0.5 -27.6L-2.85 -27.6L-4.9 -28.2Q-6.05 -28.6 -8 -30.1Q-9.05 -31 -8.25 -31.2L-6.05 -31.05L-1.7 -30.35L3.5 -30.1Q6.15 -30.05 6.1 -29Q5.95 -28 4.3 -27.75" />
</g>
</svg>
