<?xml version="1.0" encoding="utf-8"?>
<svg version="1.1" id="Layer_1"
xmlns="http://www.w3.org/2000/svg"
xmlns:xlink="http://www.w3.org/1999/xlink"
width="30px" height="39px"
xml:space="preserve">
<g id="PathID_79" transform="matrix(1, 0, 0, 1, 14.7, 19.25)">
<path style="fill:#000000;fill-opacity:1" d="M9.1 -9.25Q9.1 -17.05 0.85 -17.05Q-2.5 -17.05 -3.3 -16.35Q-4 -15.75 -4 -13.2L-4 -1.5L-1.55 -1.5Q3.6 -1.5 5.75 -2.6Q9.1 -4.3 9.1 -9.25M9.5 -18Q14.7 -15.85 14.7 -9.25Q14.7 -2.7 9.25 -0.55Q6.1 0.7 -1.45 0.7L-4 0.7L-4 19.25L-9 19.25L-9 -13.2Q-9 -15.85 -10 -16.8Q-11.05 -17.75 -14.7 -18.3L-14.7 -19.25L-0.85 -19.25Q6.5 -19.25 9.5 -18" />
</g>
</svg>
