<?xml version="1.0" encoding="utf-8"?>
<svg version="1.1" id="Layer_1"
xmlns="http://www.w3.org/2000/svg"
xmlns:xlink="http://www.w3.org/1999/xlink"
width="25px" height="14px"
xml:space="preserve">
<g id="PathID_101" transform="matrix(1, 0, 0, 1, -8.5, -8.5)">
<path style="fill:#FFFFFF;fill-opacity:1" d="M32.8 8.5L32.8 22.25L31.75 22.25L31.75 8.5L32.8 8.5M25.25 9.25L26.35 9.25L26.35 11.7L26.6 14Q26.85 15.05 27.55 16.1Q28.05 17.05 28.85 17.7L30.05 18.7L29.35 19.55L28.3 18.75L27.15 17.5L26.3 16Q25.9 15.35 25.85 14.9L25.4 16.05L24.5 17.65L23.35 18.9L22.25 19.85L21.4 19.05L22.9 17.85L24.15 16.1L25 14.05L25.25 11.7L25.25 9.25M20.85 20.35L8.5 20.35L8.5 19.4L14.15 19.4L14.15 16L10.25 16L10.25 9.8L19.2 9.8L19.2 10.8L11.3 10.8L11.3 15L19.35 15L19.35 16L15.2 16L15.2 19.4L20.85 19.4L20.85 20.35" />
</g>
</svg>
