<?xml version="1.0" encoding="utf-8"?>
<svg version="1.1" id="Layer_1"
xmlns="http://www.w3.org/2000/svg"
xmlns:xlink="http://www.w3.org/1999/xlink"
width="17px" height="25px"
xml:space="preserve">
<g id="PathID_96" transform="matrix(1, 0, 0, 1, 8.3, 12.15)">
<path style="fill:#FFFFFF;fill-opacity:1" d="M2.45 -7.7L2.05 -6.9L1.45 -2.2L1.75 -2.15L2.1 -1.85L2 -1.55L1.25 -1.5L-5.1 -1.5L-5.1 3.3L-4.8 4.05Q-4.5 4.3 -4 4.35L1.25 3.6Q4.55 2.85 6.95 1.9L6.85 -9.45Q6.85 -10.4 6.45 -10.75L5.05 -11.6Q4.6 -11.8 4.75 -12L5.6 -12.15L6.65 -11.9L7.85 -11.5Q8.45 -11.25 8.3 -10.75Q8.1 -10.3 8.15 -9.45L8.2 6.25L8 10.45Q7.8 12.15 7.35 12.2Q6.95 12.15 6.95 10.65L6.95 2.3Q5.25 3.15 1.45 4.3Q-2.35 5.4 -4.5 5.45L-5.95 5.05Q-6.4 4.7 -6.4 3.6L-6.4 -0.45Q-6.4 -1.35 -6.75 -1.6L-7.9 -1.95Q-8.45 -2.1 -8.2 -2.2L-7.3 -2.4L-6 -2.35L-4.85 -2.15L0.55 -2.05L0.6 -7.4L-1.1 -7.4L-3.15 -7.3L-4.35 -7.2L-5.25 -7Q-5.95 -6.85 -7.5 -7.7Q-7.9 -7.95 -7.65 -8L-6.7 -8.05L-5.35 -7.95L-4.05 -7.9L-1.2 -7.9L0.25 -8.1L1.2 -8.35L2.2 -8.3Q2.85 -8.1 2.45 -7.7" />
</g>
</svg>
