<?xml version="1.0" encoding="utf-8"?>
<svg version="1.1" id="Layer_1"
xmlns="http://www.w3.org/2000/svg"
xmlns:xlink="http://www.w3.org/1999/xlink"
width="30px" height="40px"
xml:space="preserve">
<g id="PathID_83" transform="matrix(1, 0, 0, 1, 14.95, 19.85)">
<path style="fill:#000000;fill-opacity:1" d="M8 -11.45Q5.9 -17.6 0.05 -17.6Q-5.8 -17.6 -7.95 -11.7Q-9.35 -7.85 -9.35 0.05Q-9.35 7.75 -8 11.55Q-5.9 17.7 0.05 17.7Q5.8 17.7 7.9 11.8Q9.3 7.95 9.3 0.05Q9.3 -7.65 8 -11.45M0.05 -19.85Q14.95 -19.85 14.95 0.05Q14.95 9.75 11.75 14.55Q8.15 19.9 0.05 19.9Q-14.95 19.9 -14.95 0.05Q-14.95 -19.85 0.05 -19.85" />
</g>
</svg>
