<?xml version="1.0" encoding="utf-8"?>
<svg version="1.1" id="Layer_1"
xmlns="http://www.w3.org/2000/svg"
xmlns:xlink="http://www.w3.org/1999/xlink"
width="38px" height="14px"
xml:space="preserve">
<g id="PathID_100" transform="matrix(1, 0, 0, 1, -8.5, -8.5)">
<path style="fill:#FFFFFF;fill-opacity:1" d="M42.35 19.5L41.3 18.7L40.15 17.5L39.3 16Q38.9 15.35 38.85 14.9L38.35 16.05L37.45 17.6L36.35 18.85L35.25 19.85L34.4 19.05L35.9 17.8L37.15 16.1L38 14.05L38.25 11.7L38.25 9.3L39.35 9.3L39.35 11.7L39.6 14Q39.85 15.05 40.5 16.1Q41 17 41.8 17.7L43.05 18.65L42.35 19.5M45.8 8.5L45.8 22.3L44.75 22.3L44.75 8.5L45.8 8.5M32.15 10.8L24.2 10.8L24.2 15L32.25 15L32.25 16L28.1 16L28.1 19.35L33.75 19.35L33.75 20.35L21.4 20.35L21.4 19.35L27.05 19.35L27.05 16L23.15 16L23.15 9.8L32.15 9.8L32.15 10.8M19.85 8.5L19.85 18.45L18.8 18.45L18.8 8.5L19.85 8.5M12.2 10.2L12.2 8.9L13.3 8.9L13.3 10.2Q13.2 11.15 13.55 12.1Q13.9 13.05 14.4 13.7L15.7 14.95L16.85 15.75L16.15 16.6L15.2 15.85L13.95 14.7L13.15 13.65L12.7 12.7L12.25 13.7L11.55 14.9L10.35 16.05L9.25 16.85L8.5 16.05L9.8 15.2L11 13.85L11.85 12.1L12.2 10.2M12.3 17.7L12.3 21.05L20.1 21.05L20.1 21.95L11.3 21.95L11.3 17.7L12.3 17.7" />
</g>
</svg>
