<?xml version="1.0" encoding="utf-8"?>
<svg version="1.1" id="Layer_1"
xmlns="http://www.w3.org/2000/svg"
xmlns:xlink="http://www.w3.org/1999/xlink"
width="18px" height="25px"
xml:space="preserve">
<g id="PathID_95" transform="matrix(1, 0, 0, 1, 8.75, 12.15)">
<path style="fill:#FFFFFF;fill-opacity:1" d="M-2.55 -8.6L-3 -9.05L-2.4 -9.15L-1.3 -8.75L-0.15 -8.05Q0.35 -7.7 0.3 -7.35L0 -6.6L-1.95 -2.55L-0.3 -0.95L0.9 0.2L1.75 0.6L2.3 1L3.1 2.1L3.65 2.95Q4.05 4 3.5 4Q2.95 4 2.25 3.2L-0.05 0.55L-2.25 -1.95L-4.65 1.5Q-6 3.1 -7.55 4.2L-8.65 4.8Q-8.95 4.75 -8.5 4.4Q-6.9 3.25 -4.7 0Q-2.55 -3.15 -1.85 -6.4L-1.7 -7.7Q-1.75 -8.15 -2.55 -8.6M8.55 -9.45L8.65 6.25L8.45 10.45Q8.25 12.15 7.75 12.2Q7.35 12.15 7.4 10.65L7.25 -9.45Q7.25 -10.4 6.85 -10.75L5.45 -11.6Q5 -11.8 5.15 -12L6.05 -12.15L7.05 -11.9L8.3 -11.5Q8.9 -11.25 8.75 -10.75L8.55 -9.45" />
</g>
</svg>
