<?xml version="1.0" encoding="utf-8"?>
<svg version="1.1" id="Layer_1"
xmlns="http://www.w3.org/2000/svg"
xmlns:xlink="http://www.w3.org/1999/xlink"
width="31px" height="39px"
xml:space="preserve">
<g id="PathID_76" transform="matrix(1, 0, 0, 1, 15.3, 19.25)">
<path style="fill:#000000;fill-opacity:1" d="M-0.45 -17Q-3.3 -17 -3.95 -16.35Q-4.55 -15.75 -4.55 -13.2L-4.55 -1.9L-3 -1.9Q1.8 -1.9 4.05 -2.9Q8.05 -4.7 8.05 -9.95Q8.05 -17 -0.45 -17M-10.55 -16.85Q-11.35 -17.5 -15.3 -18.3L-15.3 -19.25L0.9 -19.25Q13.65 -19.25 13.65 -9.35Q13.65 -1.3 3.75 -0.05L15.35 19.25L9.7 19.25L-1.65 0.3L-4.55 0.3L-4.55 19.25L-9.5 19.25L-9.5 -13.2Q-9.5 -16.05 -10.55 -16.85" />
</g>
</svg>
