<?xml version="1.0" encoding="utf-8"?>
<svg version="1.1" id="Layer_1"
xmlns="http://www.w3.org/2000/svg"
xmlns:xlink="http://www.w3.org/1999/xlink"
width="21px" height="17px"
xml:space="preserve">
<g id="PathID_97" transform="matrix(1, 0, 0, 1, 10.4, 8.4)">
<path style="fill:#FFFFFF;fill-opacity:1" d="M-6.25 -7.95L-5.4 -7.9L-4 -7.8L0.1 -7.9L3.3 -8.25L4.25 -8.4L5.15 -8.3Q5.85 -8.05 5.65 -7.6L4.65 -6.45L2.8 -4.55L0.65 -2.7L4.6 -1.05L5.55 -0.95L6.4 -0.9L7.45 -0.3L8.3 0.4Q9 0.95 8.55 1.35L7.2 1.2L3.85 -0.45L0.05 -2.25L-3.95 0.4Q-6 1.55 -7.55 1.95L-8.85 2.15L-8.65 1.95Q-5.65 0.95 -2.25 -1.75Q1.15 -4.4 3.3 -7.5L-2.55 -7.25L-3.35 -7.15L-3.75 -7.05L-4.8 -6.85Q-5.45 -6.8 -6.8 -7.5Q-7.3 -7.8 -7.1 -7.95L-6.25 -7.95M3.7 7.1L5.25 6.9L8.5 6.4Q10.5 6.4 10.45 7.2Q10.4 7.75 9.6 7.8L7.9 7.8L5.1 7.7L0.9 7.75L-3.2 7.85L-4.55 8L-6.35 8.45Q-7.2 8.75 -9.9 7.7Q-10.65 7.35 -10.3 7.2L-9.15 7.05L-7.35 7.1L-4.8 7.2L0.95 7.2L3.7 7.1" />
</g>
</svg>
