<?xml version="1.0" encoding="utf-8"?>
<svg version="1.1" id="Layer_1"
xmlns="http://www.w3.org/2000/svg"
xmlns:xlink="http://www.w3.org/1999/xlink"
width="54px" height="68px"
xml:space="preserve">
<g id="PathID_93" transform="matrix(1, 0, 0, 1, 26.9, 33.65)">
<path style="fill:#FFFFFF;fill-opacity:1" d="M22.75 -29.7Q22.2 -28.35 22.2 -25.85L22.45 9.9Q22.4 14 21.8 17.6Q21.15 21.2 20 21.3Q19.1 21.3 19 18.2L18.85 12.8L18.7 -4.45L14.75 -4.2L12.2 -4L9.7 -3.55L8.45 -3.3L6.15 -2.75Q4.5 -2.35 -0.35 -4.35Q-1.25 -4.75 -1.3 -5.4Q-1.35 -6.05 1.85 -5.7Q4.1 -5.45 9.65 -5.65L18.7 -6.2L18.55 -25.85Q18.55 -28.55 17.35 -29.7Q16.15 -30.85 13.35 -32.05Q12.05 -32.7 12.4 -33.2Q12.8 -33.75 14.9 -33.6L17.9 -32.95L21.5 -31.85Q23.25 -31.1 22.75 -29.7M5.9 -21.65Q4.4 -20.05 3.6 -18.3Q-1.95 -7.1 -9.6 1Q-17.3 9.05 -22.75 11.65Q-25.45 12.95 -26.45 12.95Q-27.45 13 -26.25 12.35Q-21.05 9.6 -12.75 0.45Q-4.45 -8.7 0.4 -21.65L-5.8 -21.2L-10.6 -20.85L-12.8 -20.5L-13.95 -20.3Q-15.4 -19.7 -16.95 -19.55Q-18.6 -19.4 -22.6 -21.45Q-24.05 -22.3 -23.45 -22.6L-21.15 -22.8L-18.4 -22.5L-14.4 -22.25L-6.1 -22.6Q-1.8 -22.95 -0.5 -23.65Q0.55 -24.25 2.5 -24.1L4.9 -23.8Q7.3 -23.2 5.9 -21.65M-13.95 14.8Q-14.35 14.25 -11.75 13.95L-8.7 13.9L-5.9 14.15Q-3.55 14.55 -3.9 15.55Q-4.3 16.6 -4.3 18.35L-4.3 28.95Q-4.3 30.4 -3.35 31.15Q-2.4 31.9 -1.35 31.9L12.05 31.75L14.8 31.5Q16.3 31.25 17.45 30.5Q18.35 29.7 20.65 29.65L24.55 29.8Q27.3 30.4 26.9 31.9Q26.55 33.35 24.1 33.35L-1.5 33.65Q-4 33.65 -6 32.8Q-8 31.9 -8 28.65L-8 20.25Q-8.05 17.55 -9.05 16.8Q-10.1 15.95 -12.7 15.45Q-13.65 15.3 -13.95 14.8" />
</g>
</svg>
