<?xml version="1.0" encoding="utf-8"?>
<svg version="1.1" id="Layer_1"
xmlns="http://www.w3.org/2000/svg"
xmlns:xlink="http://www.w3.org/1999/xlink"
width="56px" height="67px"
xml:space="preserve">
<g id="PathID_91" transform="matrix(1, 0, 0, 1, 27.9, 33.5)">
<path style="fill:#FFFFFF;fill-opacity:1" d="M12.1 -33.05Q12.45 -33.6 14.7 -33.45L17.65 -32.85L21.35 -31.7Q23.15 -30.95 22.6 -29.6Q22.05 -28.2 22.05 -25.7L22.35 10.05Q22.35 14.1 21.7 17.75Q21 21.35 19.8 21.45Q18.95 21.4 18.8 18.3L18.65 12.95L18.55 5.1L17.15 5.3L16.2 5.5L14 6.1L13 6.5L10.8 7.1Q9.2 7.55 4.35 5.5L3.9 5.2L3.55 5.05Q1.75 7.85 -1.5 9.4Q-4.75 10.95 -8.1 10.95Q-12.7 10.95 -16.8 7.95Q-20.9 4.95 -20.9 -0.35Q-20.9 -8.05 -15.45 -9.7L-10 -11.5Q-9 -12.65 -9.85 -13Q-10.65 -13.35 -10.65 -14.1Q-10.7 -15.4 -8.45 -14.95Q-6.2 -14.55 -5.6 -13.8Q-5.2 -13.3 -5.45 -12.85L-5.75 -11.65L-0.35 -9.75Q5.05 -7.95 5.05 -0.35L4.8 2L4.05 4.15L5 4L6.5 4.15Q8.7 4.4 12.25 4.15L18.55 3.5L18.5 -9.25L17.1 -9.05L16.2 -8.85L14 -8.25L13 -7.85L10.8 -7.25Q9.2 -6.8 4.35 -8.85Q3.35 -9.25 3.4 -9.85Q3.35 -10.55 6.5 -10.2Q8.7 -9.95 12.2 -10.2L18.5 -10.85L18.4 -25.7Q18.4 -28.45 17.2 -29.6Q15.95 -30.75 13 -31.95Q11.7 -32.55 12.1 -33.05M0.35 -26.45Q0.35 -25.25 -1.95 -25.1L-6.25 -24.85L-9.85 -24.95L-12.35 -25.55Q-13.7 -26.05 -16.05 -27.7Q-17.35 -28.5 -16.35 -28.8L-13.8 -28.75L-8.85 -28.05L-2.9 -27.75Q0.35 -27.7 0.35 -26.45M10 -18.95Q11.7 -18.35 11.3 -17.35Q10.9 -16.4 9.55 -16.35L-1.9 -16.55L-13.95 -16.15Q-16.9 -15.85 -18.7 -15Q-20.55 -14.2 -26.25 -16.5Q-28.75 -17.65 -27.5 -18.15L-25 -18.5L-20.95 -18.15L-15.75 -17.95L-7.8 -18Q-2.55 -18.1 -0.05 -19.1L5.55 -19.6L10 -18.95M1.2 -0.35Q1.15 -4.3 -1.5 -7.05Q-4.15 -9.75 -8.1 -9.75Q-11.9 -9.75 -14.45 -7.05Q-17.05 -4.4 -17.05 -0.35Q-17.05 3.35 -14.45 6.2Q-11.9 9.05 -8.1 9.05Q-4.25 9.05 -1.5 6.25Q1.2 3.45 1.2 -0.35M-4.05 28.8Q-4.05 30.25 -3.05 31Q-2.1 31.75 -1 31.75L12.95 31.6L15.8 31.35Q17.25 31.05 18.4 30.3Q19.3 29.55 21.7 29.5L25.6 29.6Q28.35 30.2 28 31.7Q27.6 33.2 25.15 33.2L-1.15 33.5Q-3.7 33.5 -5.75 32.65Q-7.8 31.75 -7.8 28.4L-7.8 22.65Q-7.8 20 -8.8 19.2Q-9.85 18.4 -12.5 17.85Q-13.4 17.7 -13.75 17.2Q-14.1 16.65 -11.55 16.35L-8.45 16.3L-5.6 16.6Q-3.25 16.95 -3.65 18Q-4.05 19.1 -4.05 20.85L-4.05 28.8" />
</g>
</svg>
