<?xml version="1.0" encoding="utf-8"?>
<svg version="1.1" id="Layer_1"
xmlns="http://www.w3.org/2000/svg"
xmlns:xlink="http://www.w3.org/1999/xlink"
width="25px" height="14px"
xml:space="preserve">
<g id="PathID_99" transform="matrix(1, 0, 0, 1, -8.5, -8.5)">
<path style="fill:#FFFFFF;fill-opacity:1" d="M32.5 8.55L32.5 19.3L31.45 19.3L31.45 17.45L28.15 17.45L28.15 16.55L31.45 16.55L31.45 8.55L32.5 8.55M23.7 10.95Q23.7 11.45 24.3 12Q24.8 12.5 26 12.5Q27.05 12.5 27.65 12L28.2 10.95L27.65 9.9Q27.05 9.4 25.9 9.4Q24.8 9.4 24.25 9.9Q23.7 10.45 23.7 10.95M23.6 9.2Q24.4 8.5 25.9 8.5Q27.45 8.5 28.3 9.2Q29.2 10 29.25 10.95Q29.2 12 28.3 12.7Q27.45 13.5 25.9 13.5Q24.4 13.4 23.5 12.7Q22.65 12 22.65 10.95Q22.65 10 23.6 9.2M29.05 14.35L30.9 14.1L30.9 15.05L28.8 15.3L25.8 15.45L25.8 18.05L24.75 18.05L24.75 15.45L21.55 15.45L21.55 14.55L26.35 14.45L29.05 14.35M23.75 18.65L24.8 18.65L24.8 21.05L32.8 21.05L32.8 21.95L23.75 21.95L23.75 18.65M19.7 8.6L19.7 18.55L18.65 18.55L18.65 13.05L15.8 13.05L15.8 12L18.65 12L18.65 8.6L19.7 8.6M12.05 10.5L9.3 10.5L9.3 9.55L15.95 9.55L15.95 10.5L13.2 10.5L13.2 10.9Q13.15 11.75 13.45 12.45L14.15 13.75L15.3 14.9L16.5 15.55L15.85 16.5L14.95 15.95L13.85 15L13.1 14.15L12.6 13.25L12.15 14.2L11.3 15.3L10.2 16.3L9.3 16.85L8.5 16.05L9.65 15.25L10.9 14.15L11.75 12.65L12.05 10.9L12.05 10.5M12 17.7L12 21.1L20 21.1L20 22L10.95 22L10.95 17.7L12 17.7" />
</g>
</svg>
