<?xml version="1.0" encoding="utf-8"?>
<svg version="1.1" id="Layer_1"
xmlns="http://www.w3.org/2000/svg"
xmlns:xlink="http://www.w3.org/1999/xlink"
width="514px" height="278px"
xml:space="preserve">
<g id="PathID_5" transform="matrix(1, 0, 0, 1, 292.8, 81.8)">
<linearGradient
id="LinearGradID_5" gradientUnits="userSpaceOnUse" gradientTransform="matrix(0, -0.0998535, 0.099884, 0, 95.2, 0)" spreadMethod ="pad" x1="-819.2" y1="0" x2="819.2" y2="0" >
<stop  offset="0" style="stop-color:#724A64;stop-opacity:1" />
<stop  offset="1" style="stop-color:#724A64;stop-opacity:0.4" />
</linearGradient>
<path style="fill:url(#LinearGradID_5) " d="M12.7 -78.9Q15.65 -81.8 19.8 -81.8L170.6 -81.8Q174.75 -81.8 177.65 -78.9Q180.6 -75.95 180.6 -71.8L180.6 58.7L180.65 58.7L180.65 71.85Q180.65 76 183.55 78.9Q185.75 81.1 188.6 81.65L189.9 81.85L0.55 81.85L1.85 81.65Q4.65 81.1 6.8 78.9Q9.75 76 9.75 71.85L9.75 48.1L9.8 48.1L9.8 -71.8Q9.8 -75.95 12.7 -78.9" />
</g>
<g id="PathID_6" transform="matrix(1, 0, 0, 1, 292.8, 81.8)">
<path style="fill:#724A64;fill-opacity:1" d="M216.35 86.85Q221.2 91.8 221.2 98.85L221.2 180.95Q221.2 187.1 216.9 191.45Q212.55 195.8 206.5 195.85L-278.1 195.85Q-284.15 195.8 -288.45 191.45Q-292.8 187.1 -292.8 180.95L-292.8 109.2L-292.75 109.2L-292.75 98.85Q-292.8 91.8 -287.9 86.85Q-283.35 82.2 -277.05 81.85L-276.1 81.85L204.55 81.85Q211.45 81.85 216.35 86.85" />
</g>
</svg>
