<?xml version="1.0" encoding="utf-8"?>
<svg version="1.1" id="Layer_1"
xmlns="http://www.w3.org/2000/svg"
xmlns:xlink="http://www.w3.org/1999/xlink"
width="51px" height="70px"
xml:space="preserve">
<g id="PathID_62" transform="matrix(1, 0, 0, 1, 0, 0)">
<path style="fill:#FFFFFF;fill-opacity:0.152941" d="M51 70L0 70L0 0L51 0L51 70M50 69L50 1L1 1L1 69L50 69" />
</g>
<g id="PathID_63" transform="matrix(1, 0, 0, 1, 0, 0)">
<path style="fill:#FFFFFF;fill-opacity:0.501961" d="M30.15 42.95L32.1 42.95L32.1 44.05L30.15 44.05L30.15 46L29 46L29 41L33.1 41L33.1 42.15L30.15 42.15L30.15 42.95M21.95 41L23.1 41L23.1 42.15L22.1 42.15L22.1 43.05L21.15 43.05L21.15 43.9L22.1 43.9L22.1 44.85L23.1 44.85L23.1 46L21.95 46L21.95 45L20.95 45L20.95 44.05L20.15 44.05L20.15 46L19 46L19 41L20.15 41L20.15 42.95L20.95 42.95L20.95 41.95L21.95 41.95L21.95 41M27.15 41.95L28.15 41.95L28.15 43.05L27.15 43.05L27.15 44.05L25.2 44.05L25.2 46L24.05 46L24.05 41L27.15 41L27.15 41.95M26.95 42.15L25.2 42.15L25.2 42.95L26.95 42.95L26.95 42.15" />
</g>
</svg>
