<?xml version="1.0" encoding="utf-8"?>
<svg version="1.1" id="Layer_1"
xmlns="http://www.w3.org/2000/svg"
xmlns:xlink="http://www.w3.org/1999/xlink"
width="51px" height="70px"
xml:space="preserve">
<g id="PathID_59" transform="matrix(1, 0, 0, 1, 0, 0)">
<path style="fill:#FFFFFF;fill-opacity:0.152941" d="M51 70L0 70L0 0L51 0L51 70M50 69L50 1L1 1L1 69L50 69" />
</g>
<g id="PathID_60" transform="matrix(1, 0, 0, 1, 0, 0)">
<path style="fill:#000000;fill-opacity:0.501961" d="M18 41L21.1 41L21.1 42.15L18.15 42.15L18.15 44.85L19.95 44.85L19.95 44.1L18.95 44.1L18.95 42.95L21.1 42.95L21.1 46L18 46L18 45L17 45L17 41.95L18 41.95L18 41M25.15 41.95L26 41.95L26 41L28.1 41L28.1 41.95L29.1 41.95L29.1 46L27.95 46L27.95 42.15L26.15 42.15L26.15 46L25 46L25 42.15L23.2 42.15L23.2 46L22.05 46L22.05 41L25.15 41L25.15 41.95M33.1 41.95L34.1 41.95L34.1 43.1L33.1 43.1L33.1 44.1L31.15 44.1L31.15 46L30 46L30 41L33.1 41L33.1 41.95M31.15 42.15L31.15 42.95L32.9 42.95L32.9 42.15L31.15 42.15" />
</g>
</svg>
