<?xml version="1.0" encoding="utf-8"?>
<svg version="1.1" id="Layer_1"
xmlns="http://www.w3.org/2000/svg"
xmlns:xlink="http://www.w3.org/1999/xlink"
width="51px" height="70px"
xml:space="preserve">
<g id="PathID_65" transform="matrix(1, 0, 0, 1, 0, 0)">
<path style="fill:#FFFFFF;fill-opacity:0.152941" d="M51 70L0 70L0 0L51 0L51 70M50 69L50 1L1 1L1 69L50 69" />
</g>
<g id="PathID_66" transform="matrix(1, 0, 0, 1, 0, 0)">
<path style="fill:#FFFFFF;fill-opacity:0.501961" d="M33.1 41L33.1 46L30 46L30 45L29 45L29 41L30.15 41L30.15 44.85L31.95 44.85L31.95 41L33.1 41M35.15 44.85L36.9 44.85L36.9 42.1L35.15 42.1L35.15 44.85M38.1 45L37.1 45L37.1 46L34 46L34 41L37.1 41L37.1 41.9L38.1 41.9L38.1 45M40.1 41L40.1 46L39 46L39 41L40.1 41M41 41.9L42 41.9L42 41L44.1 41L44.1 41.9L45.1 41.9L45.1 45L44.1 45L44.1 46L42 46L42 45L41 45L41 41.9M42.15 42.1L42.15 44.8L43.95 44.8L43.95 42.1L42.15 42.1M16.15 41.9L16.15 46L15 46L15 42.1L13.2 42.1L13.2 46L12.05 46L12.05 41L15.15 41L15.15 41.9L16.15 41.9M20 41.9L21 41.9L21 41L24.1 41L24.1 42.1L21.15 42.1L21.15 42.9L23.1 42.9L23.1 43.9L24.1 43.9L24.1 45L23.1 45L23.1 46L20 46L20 44.85L22.95 44.85L22.95 44.05L21 44.05L21 43.05L20 43.05L20 41.9M25 41L28.1 41L28.1 42.1L27.15 42.1L27.15 46L26 46L26 42.1L25 42.1L25 41M9.95 44.85L9.95 41L11.1 41L11.1 46L8 46L8 45L7 45L7 41L8.15 41L8.15 44.85L9.95 44.85" />
</g>
</svg>
