<?xml version="1.0" encoding="utf-8"?>
<svg version="1.1" id="Layer_1"
xmlns="http://www.w3.org/2000/svg"
xmlns:xlink="http://www.w3.org/1999/xlink"
width="25px" height="12px"
xml:space="preserve">
<g id="PathID_36" transform="matrix(1, 0, 0, 1, -14, -41)">
<path style="fill:#FFFFFF;fill-opacity:1" d="M17.95 41L20.05 41L20.05 41.95L21.05 41.95L21.05 46.05L19.9 46.05L19.9 42.15L18.1 42.15L18.1 46.05L16.95 46.05L16.95 42.15L15.15 42.15L15.15 46.05L14 46.05L14 41L17.1 41L17.1 41.95L17.95 41.95L17.95 41M17.1 48.95L18.1 48.95L18.1 50.05L17.1 50.05L17.1 50.9L18.1 50.9L18.1 52L17.1 52L17.1 53L14 53L14 48L17.1 48L17.1 48.95M20 48L22.1 48L22.1 48.95L23.1 48.95L23.1 52L22.1 52L22.1 53L20 53L20 52L19 52L19 48.95L20 48.95L20 48M15.15 49.1L15.15 49.9L16.9 49.9L16.9 49.1L15.15 49.1M30.1 41L30.1 41.95L31.1 41.95L31.1 43.05L30.1 43.05L30.1 43.9L31.1 43.9L31.1 46L29.95 46L29.95 44.05L28.15 44.05L28.15 46L27 46L27 41L30.1 41M29.9 42.9L29.9 42.1L28.15 42.1L28.15 42.9L29.9 42.9M24.95 42.9L24.95 42.1L23.15 42.1L23.15 42.9L24.95 42.9M25.1 41L25.1 41.95L26.1 41.95L26.1 46L24.95 46L24.95 44.05L23.15 44.05L23.15 46L22 46L22 41.95L23 41.95L23 41L25.1 41M24 49.1L24 48L27.1 48L27.1 49.1L26.15 49.1L26.15 53L25 53L25 49.1L24 49.1M28 49.1L28 48L31.1 48L31.1 49.1L30.15 49.1L30.15 53L29 53L29 49.1L28 49.1M38.1 41.95L38.1 45L37.1 45L37.1 46L35 46L35 45L34 45L34 41.95L35 41.95L35 41L37.1 41L37.1 41.95L38.1 41.95M33.1 41L33.1 46L32 46L32 41L33.1 41M33.15 49.1L33.15 49.9L34.95 49.9L34.95 49.1L33.15 49.1M35.1 48.95L36.1 48.95L36.1 53L34.95 53L34.95 51.05L33.15 51.05L33.15 53L32 53L32 48.95L33 48.95L33 48L35.1 48L35.1 48.95M36.95 42.1L35.15 42.1L35.15 44.8L36.95 44.8L36.95 42.1M20.15 49.1L20.15 51.8L21.95 51.8L21.95 49.1L20.15 49.1M16.9 51.05L15.15 51.05L15.15 51.85L16.9 51.85L16.9 51.05" />
</g>
</svg>
