<?xml version="1.0" encoding="utf-8"?>
<svg version="1.1" id="Layer_1"
xmlns="http://www.w3.org/2000/svg"
xmlns:xlink="http://www.w3.org/1999/xlink"
width="51px" height="70px"
xml:space="preserve">
<g id="PathID_56" transform="matrix(1, 0, 0, 1, 0, 0)">
<path style="fill:#FFFFFF;fill-opacity:0.152941" d="M51 70L0 70L0 0L51 0L51 70M50 69L50 1L1 1L1 69L50 69" />
</g>
<g id="PathID_57" transform="matrix(1, 0, 0, 1, 0, 0)">
<path style="fill:#FFFFFF;fill-opacity:0.501961" d="M9.15 48L9.15 49.9L10.95 49.9L10.95 48L12.1 48L12.1 53L10.95 53L10.95 51.05L9.15 51.05L9.15 53L8 53L8 48L9.15 48M8 45L8 41.95L9 41.95L9 41L12.1 41L12.1 42.1L9.15 42.1L9.15 44.85L12.1 44.85L12.1 46L9 46L9 45L8 45M19 41L21.15 41L21.15 41.95L22.2 41.95L22.2 45L21.15 45L21.15 46L19 46L19 45L18 45L18 41.95L19 41.95L19 41M16.15 41.95L17.15 41.95L17.15 45L16.15 45L16.15 46L14.05 46L14.05 45L13.05 45L13.05 41.95L14.05 41.95L14.05 41L16.15 41L16.15 41.95M14.2 48L14.2 53L13.05 53L13.05 48L14.2 48M16.15 49.15L16.15 53L15 53L15 48L18.1 48L18.1 48.95L18.9 48.95L18.9 48L21 48L21 48.95L22 48.95L22 53L20.85 53L20.85 49.15L19.05 49.15L19.05 53L17.95 53L17.95 49.15L16.15 49.15M16 42.1L14.2 42.1L14.2 44.8L16 44.8L16 42.1M19.15 44.8L21 44.8L21 42.1L19.15 42.1L19.15 44.8M26.1 43.05L26.1 44.05L24.15 44.05L24.15 46L23 46L23 41L26.1 41L26.1 41.95L27.1 41.95L27.1 43.05L26.1 43.05M25.9 42.1L24.15 42.1L24.15 42.9L25.9 42.9L25.9 42.1M26.05 48.95L26.9 48.95L26.9 48L29 48L29 48.95L30 48.95L30 53L28.85 53L28.85 49.15L27.05 49.15L27.05 53L25.9 53L25.9 49.15L24.15 49.15L24.15 53L23 53L23 48L26.05 48L26.05 48.95M35.1 49.15L32.15 49.15L32.15 49.9L34.1 49.9L34.1 51.05L32.15 51.05L32.15 51.85L35.1 51.85L35.1 53L31 53L31 48L35.1 48L35.1 49.15M37.15 48L37.15 51.85L39.1 51.85L39.1 53L36 53L36 48L37.15 48M40 49.9L43.1 49.9L43.1 51L40 51L40 49.9M23.15 55L23.15 58.85L25.05 58.85L25.05 55L26.2 55L26.2 60L23 60L23 59L22 59L22 55L23.15 55M21.1 60L19.95 60L19.95 58.05L18.15 58.05L18.15 60L17 60L17 55.95L18 55.95L18 55L20.1 55L20.1 55.95L21.1 55.95L21.1 60M14.2 55L14.2 58.85L16.15 58.85L16.15 60L13.05 60L13.05 55L14.2 55M12.1 57.1L11.1 57.1L11.1 57.9L12.1 57.9L12.1 59L11.1 59L11.1 60L8 60L8 55L11.1 55L11.1 55.95L12.1 55.95L12.1 57.1M10.9 56.15L9.15 56.15L9.15 56.95L10.9 56.95L10.9 56.15M10.9 58.05L9.15 58.05L9.15 58.85L10.9 58.85L10.9 58.05M18.15 56.15L18.15 56.95L19.95 56.95L19.95 56.15L18.15 56.15" />
</g>
</svg>
