<?xml version="1.0" encoding="utf-8"?>
<svg version="1.1" id="Layer_1"
xmlns="http://www.w3.org/2000/svg"
xmlns:xlink="http://www.w3.org/1999/xlink"
width="29px" height="13px"
xml:space="preserve">
<g id="PathID_49" transform="matrix(1, 0, 0, 1, -12, -41)">
<path style="fill:#000000;fill-opacity:1" d="M17 41L20.1 41L20.1 42.15L19.15 42.15L19.15 46L18 46L18 42.15L17 42.15L17 41M16.1 42.15L13.15 42.15L13.15 42.95L15.1 42.95L15.1 43.95L16.1 43.95L16.1 45.05L15.1 45.05L15.1 46.05L12 46.05L12 44.9L14.95 44.9L14.95 44.1L13 44.1L13 43.1L12 43.1L12 41.95L13 41.95L13 41L16.1 41L16.1 42.15M13.15 48L13.15 50L14.95 50L14.95 48L16.1 48L16.1 53.1L14.95 53.1L14.95 51.15L13.15 51.15L13.15 53.1L12 53.1L12 48L13.15 48M18.2 49.2L18.2 51.9L20 51.9L20 49.2L18.2 49.2M20.15 49L21.2 49L21.2 52.1L20.15 52.1L20.15 53.1L18.05 53.1L18.05 52.1L17 52.1L17 49L18.05 49L18.05 48L20.15 48L20.15 49M27.15 41L27.15 44.85L28.95 44.85L28.95 41L30.1 41L30.1 45L29.1 45L29.1 46L27 46L27 45L26 45L26 41L27.15 41M22.15 42.9L24.1 42.9L24.1 44.05L22.15 44.05L22.15 44.85L25.1 44.85L25.1 46L21 46L21 41L25.1 41L25.1 42.15L22.15 42.15L22.15 42.9M23.15 48L23.15 51.95L25.1 51.95L25.1 53.1L22 53.1L22 48L23.15 48M27.15 48L27.15 51.95L29.1 51.95L29.1 53.1L26 53.1L26 48L27.15 48M39.1 41.95L40.1 41.95L40.1 46L38.95 46L38.95 42.15L37.15 42.15L37.15 46L36 46L36 41L39.1 41L39.1 41.95M34.1 42.9L34.1 44.05L32.15 44.05L32.15 44.85L35.1 44.85L35.1 46L31 46L31 41L35.1 41L35.1 42.15L32.15 42.15L32.15 42.9L34.1 42.9" />
</g>
</svg>
