<?xml version="1.0" encoding="utf-8"?>
<svg version="1.1" id="Layer_1"
xmlns="http://www.w3.org/2000/svg"
xmlns:xlink="http://www.w3.org/1999/xlink"
width="42px" height="12px"
xml:space="preserve">
<g id="PathID_30" transform="matrix(1, 0, 0, 1, -5, -41)">
<path style="fill:#FFFFFF;fill-opacity:1" d="M46.1 42.1L43.15 42.1L43.15 42.9L45.1 42.9L45.1 44.05L43.15 44.05L43.15 44.85L46.1 44.85L46.1 46L42 46L42 41L46.1 41L46.1 42.1M42.1 49.1L41.15 49.1L41.15 53L40 53L40 49.1L39 49.1L39 48L42.1 48L42.1 49.1M41.1 46L38 46L38 45L37 45L37 41L38.15 41L38.15 44.85L39.95 44.85L39.95 41L41.1 41L41.1 46M6.15 42.15L6.15 44.9L7.9 44.9L7.9 42.15L6.15 42.15M9.1 41.95L9.1 45.05L8.1 45.05L8.1 46.05L5 46.05L5 41L8.1 41L8.1 41.95L9.1 41.95M8.1 48.95L9.1 48.95L9.1 50.05L8.1 50.05L8.1 51.05L6.15 51.05L6.15 53L5 53L5 48L8.1 48L8.1 48.95M6.15 49.1L6.15 49.9L7.9 49.9L7.9 49.1L6.15 49.1M10.05 41.95L11.05 41.95L11.05 41L13.15 41L13.15 41.95L14.15 41.95L14.15 45.05L13.15 45.05L13.15 46.05L11.05 46.05L11.05 45.05L10.05 45.05L10.05 41.95M18.95 41L21 41L21 41.95L22 41.95L22 46L20.85 46L20.85 42.1L19.1 42.1L19.1 46L17.95 46L17.95 42.1L16.15 42.1L16.15 46L15 46L15 41L18.1 41L18.1 41.95L18.95 41.95L18.95 41M11.2 42.15L11.2 44.85L13 44.85L13 42.15L11.2 42.15M11.2 49.1L11.2 49.9L13.15 49.9L13.15 51.05L11.2 51.05L11.2 51.85L14.15 51.85L14.15 53L10.05 53L10.05 48L14.15 48L14.15 49.1L11.2 49.1M19.1 48.95L19.1 50.05L18.1 50.05L18.1 50.9L19.1 50.9L19.1 53L17.95 53L17.95 51.05L16.15 51.05L16.15 53L15 53L15 48L18.1 48L18.1 48.95L19.1 48.95M16.15 49.1L16.15 49.9L17.9 49.9L17.9 49.1L16.15 49.1M26.15 42.1L26.15 46L25 46L25 41L28.1 41L28.1 41.95L29.1 41.95L29.1 46L27.95 46L27.95 42.1L26.15 42.1M24.1 41L24.1 46L23 46L23 41L24.1 41M21.15 49.1L21.15 49.9L22.9 49.9L22.9 49.1L21.15 49.1M23.1 48.95L24.1 48.95L24.1 50.05L23.1 50.05L23.1 50.9L24.1 50.9L24.1 53L22.95 53L22.95 51.05L21.15 51.05L21.15 53L20 53L20 48L23.1 48L23.1 48.95M26.15 49.1L26.15 49.9L27.95 49.9L27.95 49.1L26.15 49.1M29.1 48.95L29.1 53L27.95 53L27.95 51.05L26.15 51.05L26.15 53L25 53L25 48.95L26 48.95L26 48L28.1 48L28.1 48.95L29.1 48.95M30 41L31.1 41L31.1 46L30 46L30 41M33.15 42.1L33.15 44.8L34.95 44.8L34.95 42.1L33.15 42.1M35.1 41.9L36.1 41.9L36.1 45L35.1 45L35.1 45.85L36.1 45.85L36.1 47L34.95 47L34.95 46L33 46L33 45L32 45L32 41.9L33 41.9L33 41L35.1 41L35.1 41.9M34.1 48L34.1 53L31 53L31 52L30 52L30 48L31.15 48L31.15 51.85L32.95 51.85L32.95 48L34.1 48M36.15 48L36.15 51.85L38.1 51.85L38.1 53L35 53L35 48L36.15 48" />
</g>
</svg>
