<?xml version="1.0" encoding="utf-8"?>
<svg version="1.1" id="Layer_1"
xmlns="http://www.w3.org/2000/svg"
xmlns:xlink="http://www.w3.org/1999/xlink"
width="51px" height="70px"
xml:space="preserve">
<g id="PathID_50" transform="matrix(1, 0, 0, 1, 0, 0)">
<path style="fill:#FFFFFF;fill-opacity:0.152941" d="M51 70L0 70L0 0L51 0L51 70M50 69L50 1L1 1L1 69L50 69" />
</g>
<g id="PathID_51" transform="matrix(1, 0, 0, 1, 0, 0)">
<path style="fill:#FFFFFF;fill-opacity:0.501961" d="M16.95 42.15L15 42.15L15 41L18.1 41L18.1 43.1L17.15 43.1L17.15 44.1L16.15 44.1L16.15 44.85L18.1 44.85L18.1 46L15 46L15 43.95L16 43.95L16 42.95L16.95 42.95L16.95 42.15M22.1 41.95L23.1 41.95L23.1 46L21.95 46L21.95 44.1L20.15 44.1L20.15 46L19 46L19 41.95L20 41.95L20 41L22.1 41L22.1 41.95M20.15 42.15L20.15 42.95L21.95 42.95L21.95 42.15L20.15 42.15M27.05 42.95L27.05 41L28.2 41L28.2 46L27.05 46L27.05 44.1L25.15 44.1L25.15 46L24 46L24 41L25.15 41L25.15 42.95L27.05 42.95M30.15 42.15L30.15 42.95L31.95 42.95L31.95 42.15L30.15 42.15M30 41L32.1 41L32.1 41.95L33.1 41.95L33.1 46L31.95 46L31.95 44.1L30.15 44.1L30.15 46L29 46L29 41.95L30 41.95L30 41M29.1 48.95L29.1 52L28.1 52L28.1 53L25 53L25 48L28.1 48L28.1 48.95L29.1 48.95M31.1 48L31.1 53L30 53L30 48L31.1 48M24.1 48.95L24.1 53L22.95 53L22.95 51.1L21.15 51.1L21.15 53L20 53L20 48.95L21 48.95L21 48L23.1 48L23.1 48.95L24.1 48.95M22.95 49.15L21.15 49.15L21.15 49.95L22.95 49.95L22.95 49.15M26.15 49.15L26.15 51.85L27.9 51.85L27.9 49.15L26.15 49.15M32 48L35.1 48L35.1 48.95L36.1 48.95L36.1 52L35.1 52L35.1 53L32 53L32 48M17.95 48L19.1 48L19.1 53L17.95 53L17.95 51.1L16.15 51.1L16.15 53L15 53L15 48L16.15 48L16.15 49.95L17.95 49.95L17.95 48M33.15 49.15L33.15 51.85L34.9 51.85L34.9 49.15L33.15 49.15" />
</g>
</svg>
