<?xml version="1.0" encoding="utf-8"?>
<svg version="1.1" id="Layer_1"
xmlns="http://www.w3.org/2000/svg"
xmlns:xlink="http://www.w3.org/1999/xlink"
width="51px" height="70px"
xml:space="preserve">
<g id="PathID_53" transform="matrix(1, 0, 0, 1, 0, 0)">
<path style="fill:#FFFFFF;fill-opacity:0.152941" d="M51 70L0 70L0 0L51 0L51 70M50 69L50 1L1 1L1 69L50 69" />
</g>
<g id="PathID_54" transform="matrix(1, 0, 0, 1, 0, 0)">
<path style="fill:#FFFFFF;fill-opacity:0.501961" d="M41.1 42.15L38.15 42.15L38.15 44.85L41.1 44.85L41.1 46L38 46L38 45L37 45L37 41.95L38 41.95L38 41L41.1 41L41.1 42.15M45 43L45 44L42 44L42 43L45 43M22.15 42.95L23.95 42.95L23.95 41L25.1 41L25.1 46L23.95 46L23.95 44.05L22.15 44.05L22.15 46L21 46L21 41L22.15 41L22.15 42.95M20.1 42.15L17.15 42.15L17.15 44.85L20.1 44.85L20.1 46L17 46L17 45L16 45L16 41.95L17 41.95L17 41L20.1 41L20.1 42.15M28 42.15L28 41L31.1 41L31.1 42.15L30.15 42.15L30.15 46L29 46L29 42.15L28 42.15M27.1 41L27.1 46L26 46L26 41L27.1 41M33.15 44.05L33.15 44.85L36.1 44.85L36.1 46L32 46L32 41L36.1 41L36.1 42.15L33.15 42.15L33.15 42.95L35.1 42.95L35.1 44.05L33.15 44.05M24.2 49.15L21.15 49.15L21.15 49.95L23.1 49.95L23.1 51.05L21.15 51.05L21.15 51.85L24.2 51.85L24.2 53L20 53L20 48L24.2 48L24.2 49.15M24.1 55.95L24.1 59L23.1 59L23.1 60L20 60L20 55L23.1 55L23.1 55.95L24.1 55.95M21.15 56.15L21.15 58.85L22.9 58.85L22.9 56.15L21.15 56.15M28.15 56.15L28.15 58.8L29.95 58.8L29.95 56.15L28.15 56.15M30.1 55.95L31.1 55.95L31.1 59L30.1 59L30.1 60L28 60L28 59L27 59L27 55.95L28 55.95L28 55L30.1 55L30.1 55.95M26.1 55L26.1 60L25 60L25 55L26.1 55M9.1 41.95L10.1 41.95L10.1 46L8.95 46L8.95 44.05L7.15 44.05L7.15 46L6 46L6 41.95L7 41.95L7 41L9.1 41L9.1 41.95M8.95 42.15L7.15 42.15L7.15 42.95L8.95 42.95L8.95 42.15M13.95 42.95L13.95 42.15L12.2 42.15L12.2 42.95L13.95 42.95M14.15 43.9L15.15 43.9L15.15 46L14 46L14 44.05L12.2 44.05L12.2 46L11.05 46L11.05 41L14.15 41L14.15 41.95L15.15 41.95L15.15 43.1L14.15 43.1L14.15 43.9M16.15 49.95L17.9 49.95L17.9 49.15L16.15 49.15L16.15 49.95M19.1 50.9L19.1 53L17.95 53L17.95 51.05L16.15 51.05L16.15 53L15 53L15 48L18.1 48L18.1 48.95L19.1 48.95L19.1 50.1L18.1 50.1L18.1 50.9L19.1 50.9M14.1 48L14.1 53L11 53L11 52L10 52L10 48L11.15 48L11.15 51.85L12.95 51.85L12.95 48L14.1 48M10.1 56.1L7.15 56.1L7.15 56.9L9.1 56.9L9.1 57.9L10.1 57.9L10.1 59L9.1 59L9.1 60L6 60L6 58.85L8.95 58.85L8.95 58.05L7 58.05L7 57.05L6 57.05L6 55.9L7 55.9L7 54.95L10.1 54.95L10.1 56.1M11.05 54.95L14.15 54.95L14.15 56.1L13.2 56.1L13.2 60L12.05 60L12.05 56.1L11.05 56.1L11.05 54.95M19.1 55L19.1 60L16 60L16 59L15 59L15 55L16.15 55L16.15 58.85L17.95 58.85L17.95 55L19.1 55M6.05 48L9.15 48L9.15 49.15L8.2 49.15L8.2 53L7.05 53L7.05 49.15L6.05 49.15L6.05 48" />
</g>
</svg>
