<?xml version="1.0" encoding="utf-8"?>
<svg version="1.1" id="Layer_1"
xmlns="http://www.w3.org/2000/svg"
xmlns:xlink="http://www.w3.org/1999/xlink"
width="40px" height="12px"
xml:space="preserve">
<g id="PathID_42" transform="matrix(1, 0, 0, 1, -6, -41)">
<path style="fill:#FFFFFF;fill-opacity:1" d="M45.1 48.95L45.1 53L43.95 53L43.95 49.15L42.15 49.15L42.15 53L41 53L41 48L44.1 48L44.1 48.95L45.1 48.95M7.15 42.95L8.9 42.95L8.9 42.15L7.15 42.15L7.15 42.95M9.1 43.1L9.1 44.1L7.15 44.1L7.15 46.05L6 46.05L6 41L9.1 41L9.1 41.95L10.1 41.95L10.1 43.1L9.1 43.1M10.1 49.15L7.15 49.15L7.15 49.95L9.1 49.95L9.1 51.05L7.15 51.05L7.15 51.85L10.1 51.85L10.1 53L6 53L6 48L10.1 48L10.1 49.15M16 41L19.1 41L19.1 42.15L18.15 42.15L18.15 46L17 46L17 42.15L16 42.15L16 41M15.1 41L15.1 42.15L12.15 42.15L12.15 42.9L14.1 42.9L14.1 44.05L12.15 44.05L12.15 44.85L15.1 44.85L15.1 46L11 46L11 41L15.1 41M14 48.95L14 48L17.1 48L17.1 49.15L14.15 49.15L14.15 49.95L16.1 49.95L16.1 50.9L17.1 50.9L17.1 52L16.1 52L16.1 53L13 53L13 51.85L15.95 51.85L15.95 51.05L14 51.05L14 50.05L13 50.05L13 48.95L14 48.95M12.1 48L12.1 53L11 53L11 48L12.1 48M20 41L24.1 41L24.1 42.15L21.15 42.15L21.15 42.9L23.1 42.9L23.1 44.05L21.15 44.05L21.15 44.85L24.1 44.85L24.1 46L20 46L20 41M26.15 42.9L27.9 42.9L27.9 42.15L26.15 42.15L26.15 42.9M28.1 43.05L28.1 43.9L29.1 43.9L29.1 46L27.95 46L27.95 44.05L26.15 44.05L26.15 46L25 46L25 41L28.1 41L28.1 41.95L29.1 41.95L29.1 43.05L28.1 43.05M22.1 49.15L19.15 49.15L19.15 49.95L21.1 49.95L21.1 51.05L19.15 51.05L19.15 51.85L22.1 51.85L22.1 53L18 53L18 48L22.1 48L22.1 49.15M26.1 48.95L27.1 48.95L27.1 53L25.95 53L25.95 49.15L24.15 49.15L24.15 53L23 53L23 48L26.1 48L26.1 48.95M32.1 49.15L32.1 53L30.95 53L30.95 49.15L29.15 49.15L29.15 53L28 53L28 48L31.1 48L31.1 48.95L31.95 48.95L31.95 48L34.1 48L34.1 48.95L35.1 48.95L35.1 53L33.95 53L33.95 49.15L32.1 49.15M37.15 49.15L37.15 49.95L38.95 49.95L38.95 49.15L37.15 49.15M37 48L39.1 48L39.1 48.95L40.1 48.95L40.1 53L38.95 53L38.95 51.05L37.15 51.05L37.15 53L36 53L36 48.95L37 48.95L37 48" />
</g>
</svg>
