<?xml version="1.0" encoding="utf-8"?>
<svg version="1.1" id="Layer_1"
xmlns="http://www.w3.org/2000/svg"
xmlns:xlink="http://www.w3.org/1999/xlink"
width="43px" height="12px"
xml:space="preserve">
<g id="PathID_33" transform="matrix(1, 0, 0, 1, -5, -41)">
<path style="fill:#FFFFFF;fill-opacity:1" d="M43.1 48L43.1 53L40 53L40 52L39 52L39 48L40.15 48L40.15 51.85L41.95 51.85L41.95 48L43.1 48M45.15 48L45.15 51.85L47.1 51.85L47.1 53L44 53L44 48L45.15 48M6.95 42.95L6.95 41.95L7.95 41.95L7.95 41L9.1 41L9.1 42.15L8.1 42.15L8.1 43.1L7.15 43.1L7.15 43.95L8.1 43.95L8.1 44.9L9.1 44.9L9.1 46.05L7.95 46.05L7.95 45.05L6.95 45.05L6.95 44.1L6.15 44.1L6.15 46.05L5 46.05L5 41L6.15 41L6.15 42.95L6.95 42.95M6 48L9.1 48L9.1 49.1L6.15 49.1L6.15 49.9L8.1 49.9L8.1 50.9L9.1 50.9L9.1 52L8.1 52L8.1 53L5 53L5 51.85L7.95 51.85L7.95 51.05L6 51.05L6 50.05L5 50.05L5 48.95L6 48.95L6 48M10 41L11.1 41L11.1 46L10 46L10 41M15.95 41L18.05 41L18.05 41.95L19 41.95L19 46L17.9 46L17.9 42.1L16.1 42.1L16.1 46L14.95 46L14.95 42.1L13.15 42.1L13.15 46L12 46L12 41L15.1 41L15.1 41.95L15.95 41.95L15.95 41M11.15 49.1L11.15 49.9L13.1 49.9L13.1 51.05L11.15 51.05L11.15 51.85L14.1 51.85L14.1 53L10 53L10 48L14.1 48L14.1 49.1L11.15 49.1M16.15 49.1L16.15 51.8L17.95 51.8L17.95 49.1L16.15 49.1M20 45.9L21 45.9L21 44L22.1 44L22.1 46.1L21.1 46.1L21.1 47.1L20 47.1L20 45.9M18.1 48.95L19.1 48.95L19.1 52L18.1 52L18.1 53L16 53L16 52L15 52L15 48.95L16 48.95L16 48L18.1 48L18.1 48.95M22.95 48L24.1 48L24.1 49.1L23.1 49.1L23.1 50.05L22.15 50.05L22.15 50.9L23.1 50.9L23.1 51.85L24.1 51.85L24.1 53L22.95 53L22.95 52L21.95 52L21.95 51.05L21.15 51.05L21.15 53L20 53L20 48L21.15 48L21.15 49.9L21.95 49.9L21.95 48.95L22.95 48.95L22.95 48M30 48.95L30 48L33.1 48L33.1 49.1L30.15 49.1L30.15 51.85L33.1 51.85L33.1 53L30 53L30 52L29 52L29 48.95L30 48.95M35.15 48L35.15 49.9L36.95 49.9L36.95 48L38.1 48L38.1 53L36.95 53L36.95 51.05L35.15 51.05L35.15 53L34 53L34 48L35.15 48M28.1 51L25 51L25 49.9L28.1 49.9L28.1 51" />
</g>
</svg>
