<?xml version="1.0" encoding="utf-8"?>
<svg version="1.1" id="Layer_1"
xmlns="http://www.w3.org/2000/svg"
xmlns:xlink="http://www.w3.org/1999/xlink"
width="51px" height="70px"
xml:space="preserve">
<g id="PathID_43" transform="matrix(1, 0, 0, 1, 0, 0)">
<path style="fill:#FFFFFF;fill-opacity:0.152941" d="M51 70L0 70L0 0L51 0L51 70M50 69L50 1L1 1L1 69L50 69" />
</g>
<g id="PathID_44" transform="matrix(1, 0, 0, 1, 0, 0)">
<path style="fill:#FFFFFF;fill-opacity:0.501961" d="M42 48.95L42 48L45.1 48L45.1 49.15L42.15 49.15L42.15 49.95L44.1 49.95L44.1 50.9L45.1 50.9L45.1 52L44.1 52L44.1 53L41 53L41 51.85L43.95 51.85L43.95 51.05L42 51.05L42 50.1L41 50.1L41 48.95L42 48.95M10.1 41.95L11.1 41.95L11.1 43.1L10.1 43.1L10.1 43.9L11.1 43.9L11.1 46L9.95 46L9.95 44.05L8.15 44.05L8.15 46L7 46L7 41L10.1 41L10.1 41.95M8.15 42.15L8.15 42.95L9.9 42.95L9.9 42.15L8.15 42.15M8.15 48L8.15 49.95L8.95 49.95L8.95 48.95L9.95 48.95L9.95 48L11.1 48L11.1 49.15L10.1 49.15L10.1 50.1L9.15 50.1L9.15 50.9L10.1 50.9L10.1 51.85L11.1 51.85L11.1 53L9.95 53L9.95 52L8.95 52L8.95 51.05L8.15 51.05L8.15 53L7 53L7 48L8.15 48M20.1 41.95L20.9 41.95L20.9 41L23 41L23 41.95L24 41.95L24 46L22.85 46L22.85 42.15L21.05 42.15L21.05 46L19.95 46L19.95 42.15L18.15 42.15L18.15 46L17 46L17 41L20.1 41L20.1 41.95M16.1 42.15L13.15 42.15L13.15 42.95L15.1 42.95L15.1 44.05L13.15 44.05L13.15 44.85L16.1 44.85L16.1 46L12 46L12 41L16.1 41L16.1 42.15M15.1 48L15.1 48.95L16.1 48.95L16.1 52L15.1 52L15.1 53L13 53L13 52L12 52L12 48.95L13 48.95L13 48L15.1 48M13.15 49.15L13.15 51.8L14.95 51.8L14.95 49.15L13.15 49.15M18.15 49.15L18.15 51.8L19.95 51.8L19.95 49.15L18.15 49.15M18 48L20.1 48L20.1 48.95L21.1 48.95L21.1 52L20.1 52L20.1 53L18 53L18 52L17 52L17 48.95L18 48.95L18 48M23.15 48L23.15 51.85L25.1 51.85L25.1 53L22 53L22 48L23.15 48M27.15 48L27.15 49.95L28.95 49.95L28.95 48L30.1 48L30.1 53L28.95 53L28.95 51.05L27.15 51.05L27.15 53L26 53L26 48L27.15 48M32 48.95L32 48L34.1 48L34.1 48.95L35.1 48.95L35.1 53L33.95 53L33.95 51.05L32.15 51.05L32.15 53L31 53L31 48.95L32 48.95M32.15 49.15L32.15 49.95L33.95 49.95L33.95 49.15L32.15 49.15M40.1 48.95L40.1 53L38.95 53L38.95 51.05L37.15 51.05L37.15 53L36 53L36 48.95L37 48.95L37 48L39.1 48L39.1 48.95L40.1 48.95M37.15 49.15L37.15 49.95L38.95 49.95L38.95 49.15L37.15 49.15" />
</g>
</svg>
