<?xml version="1.0" encoding="utf-8"?>
<svg version="1.1" id="Layer_1"
xmlns="http://www.w3.org/2000/svg"
xmlns:xlink="http://www.w3.org/1999/xlink"
width="35px" height="12px"
xml:space="preserve">
<g id="PathID_26" transform="matrix(1, 0, 0, 1, -9, -41)">
<path style="fill:#FFFFFF;fill-opacity:1" d="M41.9 42.15L40.15 42.15L40.15 44.95L41.9 44.95L41.9 42.15M42.1 41.95L43.1 41.95L43.1 45.1L42.1 45.1L42.1 46.1L39 46.1L39 41L42.1 41L42.1 41.95M42.1 48L42.1 52.95L41 52.95L41 48L42.1 48M9 49.1L9 48.05L12.1 48.05L12.1 49.1L11.15 49.1L11.15 53L10 53L10 49.1L9 49.1M9 41L12.1 41L12.1 41.95L13.1 41.95L13.1 43.1L12.1 43.1L12.1 43.95L13.1 43.95L13.1 45.1L12.1 45.1L12.1 46.1L9 46.1L9 41M20.15 42.95L21.9 42.95L21.9 42.15L20.15 42.15L20.15 42.95M18.1 42.15L15.15 42.15L15.15 42.95L17.1 42.95L17.1 44.1L15.15 44.1L15.15 44.95L18.1 44.95L18.1 46.1L14 46.1L14 41L18.1 41L18.1 42.15M11.9 42.95L11.9 42.15L10.15 42.15L10.15 42.95L11.9 42.95M10.15 44.95L11.9 44.95L11.9 44.1L10.15 44.1L10.15 44.95M14 48.85L14 48L17.1 48L17.1 49.05L14.15 49.05L14.15 49.85L16.1 49.85L16.1 50.85L17.1 50.85L17.1 51.95L16.1 51.95L16.1 52.95L13 52.95L13 51.8L15.95 51.8L15.95 51L14 51L14 50L13 50L13 48.85L14 48.85M19 48L22.1 48L22.1 49.05L19.15 49.05L19.15 51.8L22.1 51.8L22.1 52.95L19 52.95L19 51.95L18 51.95L18 48.85L19 48.85L19 48M20.15 46.1L19 46.1L19 41L22.1 41L22.1 41.95L23.1 41.95L23.1 43.1L22.1 43.1L22.1 43.95L23.1 43.95L23.1 46.1L21.95 46.1L21.95 44.1L20.15 44.1L20.15 46.1M30 41L32.1 41L32.1 41.95L33.1 41.95L33.1 46.1L31.95 46.1L31.95 44.1L30.15 44.1L30.15 46.1L29 46.1L29 41.95L30 41.95L30 41M27.1 41.95L28.1 41.95L28.1 46.1L26.95 46.1L26.95 42.15L25.15 42.15L25.15 46.1L24 46.1L24 41L27.1 41L27.1 41.95M30.15 42.95L31.95 42.95L31.95 42.15L30.15 42.15L30.15 42.95M24.15 48L24.15 49.85L25.95 49.85L25.95 48L27.1 48L27.1 52.95L25.95 52.95L25.95 51L24.15 51L24.15 52.95L23 52.95L23 48L24.15 48M29.15 48L29.15 51.8L30.95 51.8L30.95 48L32.1 48L32.1 52.95L29 52.95L29 51.95L28 51.95L28 48L29.15 48M36.9 42.15L35.15 42.15L35.15 42.95L36.9 42.95L36.9 42.15M37.1 43.1L37.1 43.95L38.1 43.95L38.1 46.1L36.95 46.1L36.95 44.1L35.15 44.1L35.15 46.1L34 46.1L34 41L37.1 41L37.1 41.95L38.1 41.95L38.1 43.1L37.1 43.1M36.95 48.85L36.95 48L39.05 48L39.05 48.85L40.1 48.85L40.1 52.95L38.9 52.95L38.9 49.05L37.1 49.05L37.1 52.95L35.95 52.95L35.95 49.05L34.15 49.05L34.15 52.95L33 52.95L33 48L36.1 48L36.1 48.85L36.95 48.85" />
</g>
</svg>
