<?xml version="1.0" encoding="utf-8"?>
<svg version="1.1" id="Layer_1"
xmlns="http://www.w3.org/2000/svg"
xmlns:xlink="http://www.w3.org/1999/xlink"
width="51px" height="70px"
xml:space="preserve">
<g id="PathID_37" transform="matrix(1, 0, 0, 1, 0, 0)">
<path style="fill:#FFFFFF;fill-opacity:0.152941" d="M51 70L0 70L0 0L51 0L51 70M50 69L50 1L1 1L1 69L50 69" />
</g>
<g id="PathID_38" transform="matrix(1, 0, 0, 1, 0, 0)">
<path style="fill:#FFFFFF;fill-opacity:0.501961" d="M24.1 42.1L21.15 42.1L21.15 42.9L23.1 42.9L23.1 43.9L24.1 43.9L24.1 45L23.1 45L23.1 46L20 46L20 44.85L22.95 44.85L22.95 44.05L21 44.05L21 43.05L20 43.05L20 41.9L21 41.9L21 41L24.1 41L24.1 42.1M26 41.9L26 41L29.1 41L29.1 42.1L26.15 42.1L26.15 42.9L28.1 42.9L28.1 43.9L29.1 43.9L29.1 45L28.1 45L28.1 46L25 46L25 44.85L27.95 44.85L27.95 44.05L26 44.05L26 43.05L25 43.05L25 41.9L26 41.9M31.1 41L31.1 46L30 46L30 41L31.1 41M35.1 41.9L35.95 41.9L35.95 41L38 41L38 41.9L39 41.9L39 46L37.85 46L37.85 42.1L36.05 42.1L36.05 46L34.95 46L34.95 42.1L33.15 42.1L33.15 46L32 46L32 41L35.1 41L35.1 41.9M41.1 41L41.1 46L40 46L40 41L41.1 41M11 41.9L11 41L13.1 41L13.1 41.9L14.1 41.9L14.1 46L12.95 46L12.95 42.1L11.15 42.1L11.15 46L10 46L10 42.1L8.15 42.1L8.15 46L7 46L7 41L10.15 41L10.15 41.9L11 41.9M16 41L18.1 41L18.1 41.9L19.1 41.9L19.1 46L17.95 46L17.95 44.05L16.15 44.05L16.15 46L15 46L15 41.9L16 41.9L16 41M16.15 42.9L17.95 42.9L17.95 42.1L16.15 42.1L16.15 42.9M21.1 48.9L22.1 48.9L22.1 53L20.95 53L20.95 49.1L19.15 49.1L19.15 53L18 53L18 48L21.1 48L21.1 48.9M16.1 48L16.1 48.9L17.1 48.9L17.1 53L15.95 53L15.95 51.05L14.15 51.05L14.15 53L13 53L13 48.9L14 48.9L14 48L16.1 48M15.95 49.9L15.95 49.1L14.15 49.1L14.15 49.9L15.95 49.9M16.1 55L16.1 60L13 60L13 59L12 59L12 55L13.15 55L13.15 58.85L14.95 58.85L14.95 55L16.1 55M18.15 55L18.15 56.9L18.95 56.9L18.95 55.9L19.95 55.9L19.95 55L21.1 55L21.1 56.1L20.1 56.1L20.1 57.05L19.15 57.05L19.15 57.9L20.1 57.9L20.1 58.85L21.1 58.85L21.1 60L19.95 60L19.95 59L18.95 59L18.95 58.05L18.15 58.05L18.15 60L17 60L17 55L18.15 55M12.1 53L11 53L11 48L12.1 48L12.1 53M8.15 48L8.15 51.85L10.1 51.85L10.1 53L7 53L7 48L8.15 48M8.15 56.1L8.15 56.9L10.1 56.9L10.1 58.05L8.15 58.05L8.15 60L7 60L7 55L11.1 55L11.1 56.1L8.15 56.1M33.15 56.9L35.15 56.9L35.15 57.9L36.2 57.9L36.2 59L35.15 59L35.15 60L32 60L32 58.85L35 58.85L35 58.05L33 58.05L33 57.05L32 57.05L32 55.9L33 55.9L33 55L36.2 55L36.2 56.1L33.15 56.1L33.15 56.9M24.15 49.1L24.15 51.8L25.95 51.8L25.95 49.1L24.15 49.1M26.1 48.9L27.1 48.9L27.1 52L26.1 52L26.1 53L24 53L24 52L23 52L23 48.9L24 48.9L24 48L26.1 48L26.1 48.9M22 57.05L22 55.9L23 55.9L23 55L26.1 55L26.1 56.1L23.15 56.1L23.15 56.9L25.1 56.9L25.1 57.9L26.1 57.9L26.1 59L25.1 59L25.1 60L22 60L22 58.85L24.95 58.85L24.95 58.05L23 58.05L23 57.05L22 57.05M28 55.9L28 55L30.1 55L30.1 55.9L31.1 55.9L31.1 60L29.95 60L29.95 58.05L28.15 58.05L28.15 60L27 60L27 55.9L28 55.9M28.15 56.9L29.95 56.9L29.95 56.1L28.15 56.1L28.15 56.9M45.1 44L42 44L42 42.9L45.1 42.9L45.1 44" />
</g>
</svg>
